<mxfile host="app.diagrams.net" modified="2023-05-03T19:57:29.546Z" agent="Mozilla/5.0 (Windows NT 10.0; Win64; x64) AppleWebKit/537.36 (KHTML, like Gecko) Chrome/112.0.0.0 Safari/537.36" etag="seUihOI1SCbfJivpV0Gg" version="21.2.4" type="device" pages="5">
  <diagram name="main" id="9BBptgbxjqZ7xIuFdk_F">
    <mxGraphModel dx="1050" dy="577" grid="1" gridSize="10" guides="1" tooltips="1" connect="1" arrows="1" fold="1" page="1" pageScale="1" pageWidth="827" pageHeight="1169" math="0" shadow="0">
      <root>
        <mxCell id="0" />
        <mxCell id="1" parent="0" />
        <mxCell id="zGU2goThE1gWJ3c4T70y-29" value="MainFSM" style="swimlane;rounded=1;" parent="1" vertex="1">
          <mxGeometry x="120" y="130" width="760" height="360" as="geometry">
            <mxRectangle x="120" y="150" width="90" height="30" as="alternateBounds" />
          </mxGeometry>
        </mxCell>
        <mxCell id="zGU2goThE1gWJ3c4T70y-30" value="H*" style="ellipse;whiteSpace=wrap;html=1;aspect=fixed;rounded=1;fillColor=#FFFFC0;fontStyle=1;fontSize=14;" parent="zGU2goThE1gWJ3c4T70y-29" vertex="1">
          <mxGeometry x="360" y="300" width="40" height="40" as="geometry" />
        </mxCell>
        <mxCell id="zGU2goThE1gWJ3c4T70y-20" value="ESTOP_X_PRESSED" style="edgeStyle=orthogonalEdgeStyle;html=1;verticalAlign=bottom;endArrow=open;endSize=8;strokeColor=#ff0000;rounded=0;entryX=0.5;entryY=0;entryDx=0;entryDy=0;exitX=0.5;exitY=1;exitDx=0;exitDy=0;fontStyle=1" parent="zGU2goThE1gWJ3c4T70y-29" source="JbTkuY7JHVf5ct9qyfba-3" target="zGU2goThE1gWJ3c4T70y-42" edge="1">
          <mxGeometry x="0.0049" relative="1" as="geometry">
            <mxPoint x="601" y="200" as="targetPoint" />
            <mxPoint x="606" y="140" as="sourcePoint" />
            <Array as="points" />
            <mxPoint as="offset" />
          </mxGeometry>
        </mxCell>
        <mxCell id="zGU2goThE1gWJ3c4T70y-37" value="ServiceMode" style="rounded=1;whiteSpace=wrap;html=1;arcSize=40;fontColor=#000000;fillColor=#ffffc0;strokeColor=#ff0000;fontStyle=1;align=left;" parent="zGU2goThE1gWJ3c4T70y-29" vertex="1">
          <mxGeometry x="60" y="276" width="120" height="65" as="geometry" />
        </mxCell>
        <mxCell id="zGU2goThE1gWJ3c4T70y-42" value="EStop" style="rounded=1;whiteSpace=wrap;html=1;arcSize=40;fontColor=#000000;fillColor=#ffffc0;strokeColor=#ff0000;fontStyle=1;align=center;" parent="zGU2goThE1gWJ3c4T70y-29" vertex="1">
          <mxGeometry x="576" y="262.5" width="100" height="65" as="geometry" />
        </mxCell>
        <mxCell id="zGU2goThE1gWJ3c4T70y-1" value="" style="ellipse;html=1;shape=startState;fillColor=#000000;strokeColor=#ff0000;" parent="zGU2goThE1gWJ3c4T70y-29" vertex="1">
          <mxGeometry x="30" y="112.5" width="30" height="30" as="geometry" />
        </mxCell>
        <mxCell id="JbTkuY7JHVf5ct9qyfba-1" value="&lt;b&gt;LB1_M_BLOCKED&lt;/b&gt; / &lt;br&gt;handleWorkpieceInserted()" style="edgeStyle=orthogonalEdgeStyle;rounded=0;orthogonalLoop=1;jettySize=auto;html=1;exitX=0.5;exitY=0;exitDx=0;exitDy=0;entryX=0.75;entryY=0;entryDx=0;entryDy=0;strokeColor=#FF0000;endArrow=open;endFill=0;" parent="zGU2goThE1gWJ3c4T70y-29" source="JbTkuY7JHVf5ct9qyfba-2" target="JbTkuY7JHVf5ct9qyfba-2" edge="1">
          <mxGeometry x="-0.1091" y="20" relative="1" as="geometry">
            <mxPoint x="546" y="70" as="sourcePoint" />
            <mxPoint x="606" y="70" as="targetPoint" />
            <Array as="points">
              <mxPoint x="626" y="70" />
              <mxPoint x="684" y="70" />
            </Array>
            <mxPoint as="offset" />
          </mxGeometry>
        </mxCell>
        <mxCell id="JbTkuY7JHVf5ct9qyfba-2" value="Running" style="swimlane;fontStyle=1;align=center;verticalAlign=middle;childLayout=stackLayout;horizontal=1;startSize=30;horizontalStack=0;resizeParent=0;resizeLast=1;container=0;fontColor=#000000;collapsible=0;rounded=1;arcSize=30;strokeColor=#ff0000;fillColor=#ffffc0;swimlaneFillColor=#ffffc0;dropTarget=0;" parent="zGU2goThE1gWJ3c4T70y-29" vertex="1">
          <mxGeometry x="511" y="85" width="230" height="85" as="geometry" />
        </mxCell>
        <mxCell id="JbTkuY7JHVf5ct9qyfba-3" value="entry/ greenLampOn()" style="text;html=1;strokeColor=none;fillColor=none;align=left;verticalAlign=middle;spacingLeft=4;spacingRight=4;whiteSpace=wrap;overflow=hidden;rotatable=0;fontColor=#000000;" parent="JbTkuY7JHVf5ct9qyfba-2" vertex="1">
          <mxGeometry y="30" width="230" height="55" as="geometry" />
        </mxCell>
        <mxCell id="JbTkuY7JHVf5ct9qyfba-6" value="Standby" style="swimlane;fontStyle=1;align=center;verticalAlign=middle;childLayout=stackLayout;horizontal=1;startSize=30;horizontalStack=0;resizeParent=0;resizeLast=1;container=0;fontColor=#000000;collapsible=0;rounded=1;arcSize=30;strokeColor=#ff0000;fillColor=#ffffc0;swimlaneFillColor=#ffffc0;dropTarget=0;" parent="zGU2goThE1gWJ3c4T70y-29" vertex="1">
          <mxGeometry x="100" y="85" width="210" height="85" as="geometry" />
        </mxCell>
        <mxCell id="JbTkuY7JHVf5ct9qyfba-7" value="entry/ allOff()&lt;br&gt;entry/ sendEvent(MODE_STANDBY)" style="text;html=1;strokeColor=none;fillColor=none;align=left;verticalAlign=middle;spacingLeft=4;spacingRight=4;whiteSpace=wrap;overflow=hidden;rotatable=0;fontColor=#000000;" parent="JbTkuY7JHVf5ct9qyfba-6" vertex="1">
          <mxGeometry y="30" width="210" height="55" as="geometry" />
        </mxCell>
        <mxCell id="zGU2goThE1gWJ3c4T70y-25" value="STOP_X_SHORT" style="edgeStyle=orthogonalEdgeStyle;html=1;verticalAlign=bottom;endArrow=open;endSize=8;strokeColor=#ff0000;rounded=0;exitX=0.75;exitY=0;exitDx=0;exitDy=0;fontStyle=1;entryX=0.5;entryY=1;entryDx=0;entryDy=0;" parent="zGU2goThE1gWJ3c4T70y-29" source="zGU2goThE1gWJ3c4T70y-37" target="JbTkuY7JHVf5ct9qyfba-7" edge="1">
          <mxGeometry x="-0.6769" y="-10" relative="1" as="geometry">
            <mxPoint x="210" y="200" as="targetPoint" />
            <mxPoint x="150" y="270" as="sourcePoint" />
            <Array as="points">
              <mxPoint x="150" y="240" />
              <mxPoint x="205" y="240" />
            </Array>
            <mxPoint as="offset" />
          </mxGeometry>
        </mxCell>
        <mxCell id="zGU2goThE1gWJ3c4T70y-32" value="ESTOP_X_PRESSED" style="edgeStyle=orthogonalEdgeStyle;html=1;verticalAlign=bottom;endArrow=open;endSize=8;strokeColor=#ff0000;rounded=0;exitX=0.632;exitY=0.989;exitDx=0;exitDy=0;fontStyle=1;exitPerimeter=0;entryX=0;entryY=0.75;entryDx=0;entryDy=0;" parent="zGU2goThE1gWJ3c4T70y-29" source="JbTkuY7JHVf5ct9qyfba-7" target="zGU2goThE1gWJ3c4T70y-42" edge="1">
          <mxGeometry x="0.1263" y="-10" relative="1" as="geometry">
            <mxPoint x="480" y="280" as="targetPoint" />
            <mxPoint x="210.48000000000002" y="145" as="sourcePoint" />
            <Array as="points">
              <mxPoint x="233" y="247" />
              <mxPoint x="500" y="247" />
              <mxPoint x="500" y="311" />
            </Array>
            <mxPoint as="offset" />
          </mxGeometry>
        </mxCell>
        <mxCell id="zGU2goThE1gWJ3c4T70y-21" value="" style="edgeStyle=orthogonalEdgeStyle;html=1;verticalAlign=bottom;endArrow=open;endSize=8;strokeColor=#ff0000;rounded=0;exitX=0;exitY=0.25;exitDx=0;exitDy=0;entryX=0.75;entryY=1;entryDx=0;entryDy=0;" parent="zGU2goThE1gWJ3c4T70y-29" source="zGU2goThE1gWJ3c4T70y-42" target="JbTkuY7JHVf5ct9qyfba-7" edge="1">
          <mxGeometry relative="1" as="geometry">
            <mxPoint x="270" y="190" as="targetPoint" />
            <mxPoint x="530" y="220" as="sourcePoint" />
            <Array as="points">
              <mxPoint x="520" y="279" />
              <mxPoint x="520" y="214" />
              <mxPoint x="258" y="214" />
            </Array>
          </mxGeometry>
        </mxCell>
        <mxCell id="zGU2goThE1gWJ3c4T70y-2" value="" style="edgeStyle=orthogonalEdgeStyle;html=1;verticalAlign=bottom;endArrow=open;endSize=8;strokeColor=#ff0000;rounded=0;entryX=0;entryY=0.5;entryDx=0;entryDy=0;" parent="zGU2goThE1gWJ3c4T70y-29" source="zGU2goThE1gWJ3c4T70y-1" target="JbTkuY7JHVf5ct9qyfba-6" edge="1">
          <mxGeometry relative="1" as="geometry">
            <mxPoint x="120" y="135" as="targetPoint" />
            <mxPoint x="80" y="135" as="sourcePoint" />
            <Array as="points" />
          </mxGeometry>
        </mxCell>
        <mxCell id="zGU2goThE1gWJ3c4T70y-15" value="START_X_SHORT&lt;span style=&quot;font-weight: normal;&quot;&gt; /&amp;nbsp;&lt;br&gt;sendEvent(MODE_RUNNING)&lt;/span&gt;" style="edgeStyle=orthogonalEdgeStyle;html=1;verticalAlign=bottom;endArrow=open;endSize=8;strokeColor=#ff0000;rounded=0;exitX=1;exitY=0.25;exitDx=0;exitDy=0;fontStyle=1;entryX=0;entryY=0.25;entryDx=0;entryDy=0;" parent="zGU2goThE1gWJ3c4T70y-29" source="JbTkuY7JHVf5ct9qyfba-6" target="JbTkuY7JHVf5ct9qyfba-2" edge="1">
          <mxGeometry x="-0.0588" relative="1" as="geometry">
            <mxPoint x="130" y="140" as="targetPoint" />
            <mxPoint x="240" y="122.5" as="sourcePoint" />
            <Array as="points" />
            <mxPoint as="offset" />
          </mxGeometry>
        </mxCell>
        <mxCell id="zGU2goThE1gWJ3c4T70y-16" value="STOP_X_SHORT&lt;span style=&quot;font-weight: normal;&quot;&gt;&amp;nbsp;/&amp;nbsp;&lt;/span&gt;&lt;br style=&quot;border-color: var(--border-color); font-weight: 400;&quot;&gt;&lt;span style=&quot;font-weight: 400;&quot;&gt;sendEvent(MODE_STANDBY)&lt;/span&gt;" style="edgeStyle=orthogonalEdgeStyle;html=1;verticalAlign=bottom;endArrow=open;endSize=8;strokeColor=#ff0000;rounded=0;fontStyle=1;exitX=0;exitY=0.5;exitDx=0;exitDy=0;entryX=1;entryY=0.5;entryDx=0;entryDy=0;" parent="zGU2goThE1gWJ3c4T70y-29" source="JbTkuY7JHVf5ct9qyfba-3" target="JbTkuY7JHVf5ct9qyfba-7" edge="1">
          <mxGeometry x="0.005" y="28" relative="1" as="geometry">
            <mxPoint x="240" y="135" as="targetPoint" />
            <mxPoint x="250" y="190" as="sourcePoint" />
            <Array as="points" />
            <mxPoint as="offset" />
          </mxGeometry>
        </mxCell>
        <mxCell id="uRLBFhxncsBeei8tic2m-1" value="START_X_LONG&lt;span style=&quot;font-weight: normal;&quot;&gt;&amp;nbsp;/&lt;br&gt;sendEvent(MODE_SERVICE)&lt;br&gt;&lt;/span&gt;" style="edgeStyle=orthogonalEdgeStyle;rounded=0;orthogonalLoop=1;jettySize=auto;html=1;exitX=0.25;exitY=1;exitDx=0;exitDy=0;entryX=0.25;entryY=0;entryDx=0;entryDy=0;strokeColor=#FF0000;endArrow=open;endFill=0;fontStyle=1" parent="zGU2goThE1gWJ3c4T70y-29" source="JbTkuY7JHVf5ct9qyfba-7" target="zGU2goThE1gWJ3c4T70y-37" edge="1">
          <mxGeometry x="0.2164" y="-14" relative="1" as="geometry">
            <Array as="points">
              <mxPoint x="152" y="210" />
              <mxPoint x="90" y="210" />
            </Array>
            <mxPoint x="4" y="-10" as="offset" />
          </mxGeometry>
        </mxCell>
        <mxCell id="zGU2goThE1gWJ3c4T70y-39" value="" style="ellipse;whiteSpace=wrap;html=1;aspect=fixed;rounded=1;fontSize=14;fillColor=#FFFFFF;" parent="zGU2goThE1gWJ3c4T70y-29" vertex="1">
          <mxGeometry x="651" y="301" width="14" height="14" as="geometry" />
        </mxCell>
        <mxCell id="zGU2goThE1gWJ3c4T70y-40" value="" style="ellipse;whiteSpace=wrap;html=1;aspect=fixed;rounded=1;fontSize=14;fillColor=#FFFFFF;" parent="zGU2goThE1gWJ3c4T70y-29" vertex="1">
          <mxGeometry x="651" y="276" width="14" height="14" as="geometry" />
        </mxCell>
        <mxCell id="zGU2goThE1gWJ3c4T70y-41" style="edgeStyle=orthogonalEdgeStyle;rounded=0;orthogonalLoop=1;jettySize=auto;html=1;exitX=0.5;exitY=1;exitDx=0;exitDy=0;entryX=0.5;entryY=0;entryDx=0;entryDy=0;strokeColor=#000000;fontSize=14;endArrow=none;endFill=0;" parent="zGU2goThE1gWJ3c4T70y-29" source="zGU2goThE1gWJ3c4T70y-40" target="zGU2goThE1gWJ3c4T70y-39" edge="1">
          <mxGeometry relative="1" as="geometry" />
        </mxCell>
        <mxCell id="zGU2goThE1gWJ3c4T70y-34" value="" style="ellipse;whiteSpace=wrap;html=1;aspect=fixed;rounded=1;fontSize=14;fillColor=#FFFFFF;" parent="zGU2goThE1gWJ3c4T70y-29" vertex="1">
          <mxGeometry x="150" y="314" width="14" height="14" as="geometry" />
        </mxCell>
        <mxCell id="zGU2goThE1gWJ3c4T70y-33" value="" style="ellipse;whiteSpace=wrap;html=1;aspect=fixed;rounded=1;fontSize=14;fillColor=#FFFFFF;" parent="zGU2goThE1gWJ3c4T70y-29" vertex="1">
          <mxGeometry x="150" y="289" width="14" height="14" as="geometry" />
        </mxCell>
        <mxCell id="zGU2goThE1gWJ3c4T70y-35" style="edgeStyle=orthogonalEdgeStyle;rounded=0;orthogonalLoop=1;jettySize=auto;html=1;exitX=0.5;exitY=1;exitDx=0;exitDy=0;entryX=0.5;entryY=0;entryDx=0;entryDy=0;strokeColor=#000000;fontSize=14;endArrow=none;endFill=0;" parent="zGU2goThE1gWJ3c4T70y-29" source="zGU2goThE1gWJ3c4T70y-33" target="zGU2goThE1gWJ3c4T70y-34" edge="1">
          <mxGeometry relative="1" as="geometry" />
        </mxCell>
        <mxCell id="zGU2goThE1gWJ3c4T70y-19" value="ERROR_OCCURED" style="edgeStyle=orthogonalEdgeStyle;html=1;verticalAlign=bottom;endArrow=open;endSize=8;strokeColor=#ff0000;rounded=0;entryX=0.5;entryY=0;entryDx=0;entryDy=0;fontStyle=1" parent="1" edge="1">
          <mxGeometry x="-0.1429" y="30" relative="1" as="geometry">
            <mxPoint x="540" y="560" as="targetPoint" />
            <mxPoint x="540" y="490" as="sourcePoint" />
            <Array as="points" />
            <mxPoint as="offset" />
          </mxGeometry>
        </mxCell>
        <mxCell id="zGU2goThE1gWJ3c4T70y-31" value="ERROR_SOLVED" style="edgeStyle=orthogonalEdgeStyle;html=1;verticalAlign=bottom;endArrow=open;endSize=8;strokeColor=#ff0000;rounded=0;entryX=0.5;entryY=1;entryDx=0;entryDy=0;exitX=0.25;exitY=0;exitDx=0;exitDy=0;fontStyle=1" parent="1" target="zGU2goThE1gWJ3c4T70y-30" edge="1">
          <mxGeometry x="-0.7149" y="30" relative="1" as="geometry">
            <mxPoint x="740" y="420" as="targetPoint" />
            <mxPoint x="500" y="560" as="sourcePoint" />
            <Array as="points">
              <mxPoint x="500" y="470" />
              <mxPoint x="500" y="470" />
            </Array>
            <mxPoint as="offset" />
          </mxGeometry>
        </mxCell>
        <mxCell id="zGU2goThE1gWJ3c4T70y-43" value="Error" style="rounded=1;whiteSpace=wrap;html=1;arcSize=40;fontColor=#000000;fillColor=#ffffc0;strokeColor=#ff0000;fontStyle=1;align=center;" parent="1" vertex="1">
          <mxGeometry x="470" y="560" width="100" height="65" as="geometry" />
        </mxCell>
        <mxCell id="zGU2goThE1gWJ3c4T70y-44" value="" style="group" parent="1" vertex="1" connectable="0">
          <mxGeometry x="540" y="565" width="20" height="55" as="geometry" />
        </mxCell>
        <mxCell id="zGU2goThE1gWJ3c4T70y-45" value="" style="ellipse;whiteSpace=wrap;html=1;aspect=fixed;rounded=1;fontSize=14;fillColor=#FFFFFF;" parent="zGU2goThE1gWJ3c4T70y-44" vertex="1">
          <mxGeometry x="3" y="33" width="14" height="14" as="geometry" />
        </mxCell>
        <mxCell id="zGU2goThE1gWJ3c4T70y-46" value="" style="ellipse;whiteSpace=wrap;html=1;aspect=fixed;rounded=1;fontSize=14;fillColor=#FFFFFF;" parent="zGU2goThE1gWJ3c4T70y-44" vertex="1">
          <mxGeometry x="3" y="8" width="14" height="14" as="geometry" />
        </mxCell>
        <mxCell id="zGU2goThE1gWJ3c4T70y-47" style="edgeStyle=orthogonalEdgeStyle;rounded=0;orthogonalLoop=1;jettySize=auto;html=1;exitX=0.5;exitY=1;exitDx=0;exitDy=0;entryX=0.5;entryY=0;entryDx=0;entryDy=0;strokeColor=#000000;fontSize=14;endArrow=none;endFill=0;" parent="zGU2goThE1gWJ3c4T70y-44" source="zGU2goThE1gWJ3c4T70y-46" target="zGU2goThE1gWJ3c4T70y-45" edge="1">
          <mxGeometry relative="1" as="geometry" />
        </mxCell>
      </root>
    </mxGraphModel>
  </diagram>
  <diagram id="QllDfX1K9tjjs9wqF1pc" name="motor">
    <mxGraphModel dx="1050" dy="577" grid="1" gridSize="10" guides="1" tooltips="1" connect="1" arrows="1" fold="1" page="1" pageScale="1" pageWidth="827" pageHeight="1169" math="0" shadow="0">
      <root>
        <mxCell id="0" />
        <mxCell id="1" parent="0" />
        <mxCell id="Z-nrUpfUwHJtx0alLLF2-1" value="MotorFSM" style="swimlane;rounded=1;fillColor=none;startSize=23;" parent="1" vertex="1">
          <mxGeometry x="40" y="40" width="940" height="300" as="geometry">
            <mxRectangle x="120" y="150" width="90" height="30" as="alternateBounds" />
          </mxGeometry>
        </mxCell>
        <mxCell id="Z-nrUpfUwHJtx0alLLF2-2" value="" style="ellipse;html=1;shape=startState;fillColor=#000000;strokeColor=#ff0000;" parent="Z-nrUpfUwHJtx0alLLF2-1" vertex="1">
          <mxGeometry x="30" y="60" width="30" height="30" as="geometry" />
        </mxCell>
        <mxCell id="Z-nrUpfUwHJtx0alLLF2-3" value="Standby" style="swimlane;fontStyle=1;align=center;verticalAlign=middle;childLayout=stackLayout;horizontal=1;startSize=30;horizontalStack=0;resizeParent=0;resizeLast=1;container=0;fontColor=#000000;collapsible=0;rounded=1;arcSize=30;strokeColor=#ff0000;fillColor=#ffffc0;swimlaneFillColor=#ffffc0;dropTarget=0;" parent="Z-nrUpfUwHJtx0alLLF2-1" vertex="1">
          <mxGeometry x="120" y="45" width="160" height="85" as="geometry" />
        </mxCell>
        <mxCell id="Z-nrUpfUwHJtx0alLLF2-4" value="&lt;div style=&quot;&quot;&gt;&lt;span style=&quot;background-color: initial;&quot;&gt;entry / motorStop()&lt;/span&gt;&lt;/div&gt;exit /" style="text;html=1;strokeColor=none;fillColor=none;align=left;verticalAlign=top;spacingLeft=4;spacingRight=4;whiteSpace=wrap;overflow=hidden;rotatable=0;fontColor=#000000;" parent="Z-nrUpfUwHJtx0alLLF2-3" vertex="1">
          <mxGeometry y="30" width="160" height="55" as="geometry" />
        </mxCell>
        <mxCell id="Z-nrUpfUwHJtx0alLLF2-6" value="" style="edgeStyle=orthogonalEdgeStyle;html=1;verticalAlign=bottom;endArrow=open;endSize=8;strokeColor=#ff0000;rounded=0;entryX=0;entryY=0;entryDx=0;entryDy=0;" parent="Z-nrUpfUwHJtx0alLLF2-1" source="Z-nrUpfUwHJtx0alLLF2-2" target="Z-nrUpfUwHJtx0alLLF2-4" edge="1">
          <mxGeometry relative="1" as="geometry">
            <mxPoint x="120" y="75" as="targetPoint" />
            <mxPoint x="80" y="75" as="sourcePoint" />
            <Array as="points">
              <mxPoint x="110" y="75" />
              <mxPoint x="110" y="75" />
            </Array>
          </mxGeometry>
        </mxCell>
        <mxCell id="Z-nrUpfUwHJtx0alLLF2-7" value="RightSlow" style="swimlane;fontStyle=1;align=center;verticalAlign=middle;childLayout=stackLayout;horizontal=1;startSize=30;horizontalStack=0;resizeParent=0;resizeLast=1;container=0;fontColor=#000000;collapsible=0;rounded=1;arcSize=30;strokeColor=#ff0000;fillColor=#ffffc0;swimlaneFillColor=#ffffc0;dropTarget=0;" parent="Z-nrUpfUwHJtx0alLLF2-1" vertex="1">
          <mxGeometry x="410" y="170" width="190" height="85" as="geometry" />
        </mxCell>
        <mxCell id="Z-nrUpfUwHJtx0alLLF2-8" value="entry / motorRightSlow()&lt;br&gt;exit /" style="text;html=1;strokeColor=none;fillColor=none;align=left;verticalAlign=top;spacingLeft=4;spacingRight=4;whiteSpace=wrap;overflow=hidden;rotatable=0;fontColor=#000000;" parent="Z-nrUpfUwHJtx0alLLF2-7" vertex="1">
          <mxGeometry y="30" width="190" height="55" as="geometry" />
        </mxCell>
        <mxCell id="Z-nrUpfUwHJtx0alLLF2-20" value="Ready" style="swimlane;fontStyle=1;align=center;verticalAlign=middle;childLayout=stackLayout;horizontal=1;startSize=30;horizontalStack=0;resizeParent=0;resizeLast=1;container=0;fontColor=#000000;collapsible=0;rounded=1;arcSize=30;strokeColor=#ff0000;fillColor=#ffffc0;swimlaneFillColor=#ffffc0;dropTarget=0;" parent="Z-nrUpfUwHJtx0alLLF2-1" vertex="1">
          <mxGeometry x="410" y="45" width="190" height="85" as="geometry" />
        </mxCell>
        <mxCell id="Z-nrUpfUwHJtx0alLLF2-21" value="entry / motorStop()&lt;br&gt;exit /" style="text;html=1;strokeColor=none;fillColor=none;align=left;verticalAlign=top;spacingLeft=4;spacingRight=4;whiteSpace=wrap;overflow=hidden;rotatable=0;fontColor=#000000;" parent="Z-nrUpfUwHJtx0alLLF2-20" vertex="1">
          <mxGeometry y="30" width="190" height="55" as="geometry" />
        </mxCell>
        <mxCell id="Z-nrUpfUwHJtx0alLLF2-11" value="RightFast" style="swimlane;fontStyle=1;align=center;verticalAlign=middle;childLayout=stackLayout;horizontal=1;startSize=30;horizontalStack=0;resizeParent=0;resizeLast=1;container=0;fontColor=#000000;collapsible=0;rounded=1;arcSize=30;strokeColor=#ff0000;fillColor=#ffffc0;swimlaneFillColor=#ffffc0;dropTarget=0;" parent="Z-nrUpfUwHJtx0alLLF2-1" vertex="1">
          <mxGeometry x="730" y="45" width="190" height="85" as="geometry" />
        </mxCell>
        <mxCell id="Z-nrUpfUwHJtx0alLLF2-12" value="entry / motorRightFast()&lt;br&gt;exit /" style="text;html=1;strokeColor=none;fillColor=none;align=left;verticalAlign=top;spacingLeft=4;spacingRight=4;whiteSpace=wrap;overflow=hidden;rotatable=0;fontColor=#000000;" parent="Z-nrUpfUwHJtx0alLLF2-11" vertex="1">
          <mxGeometry y="30" width="190" height="55" as="geometry" />
        </mxCell>
        <mxCell id="Z-nrUpfUwHJtx0alLLF2-14" value="HM_X_NEW_WS" style="edgeStyle=orthogonalEdgeStyle;html=1;verticalAlign=bottom;endArrow=open;endSize=8;strokeColor=#ff0000;rounded=0;entryX=1;entryY=0;entryDx=0;entryDy=0;exitX=0.25;exitY=1;exitDx=0;exitDy=0;fontStyle=1" parent="Z-nrUpfUwHJtx0alLLF2-1" source="Z-nrUpfUwHJtx0alLLF2-12" target="Z-nrUpfUwHJtx0alLLF2-8" edge="1">
          <mxGeometry x="0.2727" relative="1" as="geometry">
            <mxPoint x="290" y="112.5" as="targetPoint" />
            <mxPoint x="610" y="112.5" as="sourcePoint" />
            <Array as="points">
              <mxPoint x="778" y="200" />
            </Array>
            <mxPoint as="offset" />
          </mxGeometry>
        </mxCell>
        <mxCell id="Z-nrUpfUwHJtx0alLLF2-15" value="HM_X_WS_Y" style="edgeStyle=orthogonalEdgeStyle;html=1;verticalAlign=bottom;endArrow=open;endSize=8;strokeColor=#ff0000;rounded=0;entryX=0.75;entryY=1;entryDx=0;entryDy=0;exitX=1;exitY=0.5;exitDx=0;exitDy=0;fontStyle=1" parent="Z-nrUpfUwHJtx0alLLF2-1" source="Z-nrUpfUwHJtx0alLLF2-8" target="Z-nrUpfUwHJtx0alLLF2-12" edge="1">
          <mxGeometry x="-0.5142" y="-23" relative="1" as="geometry">
            <mxPoint x="620" y="290" as="targetPoint" />
            <mxPoint x="737.5" y="220" as="sourcePoint" />
            <Array as="points">
              <mxPoint x="738" y="228" />
              <mxPoint x="743" y="228" />
            </Array>
            <mxPoint as="offset" />
          </mxGeometry>
        </mxCell>
        <mxCell id="Z-nrUpfUwHJtx0alLLF2-22" value="MODE_RUNNING" style="edgeStyle=orthogonalEdgeStyle;html=1;verticalAlign=bottom;endArrow=open;endSize=8;strokeColor=#ff0000;rounded=0;entryX=0;entryY=0;entryDx=0;entryDy=0;exitX=1;exitY=0;exitDx=0;exitDy=0;fontStyle=1" parent="Z-nrUpfUwHJtx0alLLF2-1" source="Z-nrUpfUwHJtx0alLLF2-4" target="Z-nrUpfUwHJtx0alLLF2-21" edge="1">
          <mxGeometry relative="1" as="geometry">
            <mxPoint x="505" y="370" as="targetPoint" />
            <mxPoint x="505" y="310" as="sourcePoint" />
            <Array as="points">
              <mxPoint x="370" y="75" />
              <mxPoint x="370" y="75" />
            </Array>
            <mxPoint as="offset" />
          </mxGeometry>
        </mxCell>
        <mxCell id="Z-nrUpfUwHJtx0alLLF2-23" value="MODE_STANDBY" style="edgeStyle=orthogonalEdgeStyle;html=1;verticalAlign=bottom;endArrow=open;endSize=8;strokeColor=#ff0000;rounded=0;entryX=1;entryY=0.5;entryDx=0;entryDy=0;exitX=0;exitY=0.5;exitDx=0;exitDy=0;fontStyle=1" parent="Z-nrUpfUwHJtx0alLLF2-1" source="Z-nrUpfUwHJtx0alLLF2-21" target="Z-nrUpfUwHJtx0alLLF2-4" edge="1">
          <mxGeometry y="18" relative="1" as="geometry">
            <mxPoint x="540.0000000000002" y="160" as="targetPoint" />
            <mxPoint x="380" y="160" as="sourcePoint" />
            <Array as="points" />
            <mxPoint as="offset" />
          </mxGeometry>
        </mxCell>
        <mxCell id="Z-nrUpfUwHJtx0alLLF2-24" value="FBMX_OCCUPIED" style="edgeStyle=orthogonalEdgeStyle;html=1;verticalAlign=bottom;endArrow=open;endSize=8;strokeColor=#ff0000;rounded=0;entryX=0;entryY=0;entryDx=0;entryDy=0;exitX=1;exitY=0;exitDx=0;exitDy=0;fontStyle=1" parent="Z-nrUpfUwHJtx0alLLF2-1" source="Z-nrUpfUwHJtx0alLLF2-21" target="Z-nrUpfUwHJtx0alLLF2-12" edge="1">
          <mxGeometry x="-0.0769" relative="1" as="geometry">
            <mxPoint x="790.0000000000002" y="170" as="targetPoint" />
            <mxPoint x="630" y="170" as="sourcePoint" />
            <Array as="points">
              <mxPoint x="730" y="75" />
            </Array>
            <mxPoint as="offset" />
          </mxGeometry>
        </mxCell>
        <mxCell id="Z-nrUpfUwHJtx0alLLF2-25" value="FBMX_FREE" style="edgeStyle=orthogonalEdgeStyle;html=1;verticalAlign=bottom;endArrow=open;endSize=8;strokeColor=#ff0000;rounded=0;entryX=1;entryY=0.5;entryDx=0;entryDy=0;exitX=0;exitY=0.5;exitDx=0;exitDy=0;fontStyle=1" parent="Z-nrUpfUwHJtx0alLLF2-1" source="Z-nrUpfUwHJtx0alLLF2-12" target="Z-nrUpfUwHJtx0alLLF2-21" edge="1">
          <mxGeometry x="-0.0769" y="18" relative="1" as="geometry">
            <mxPoint x="780.0000000000005" y="170" as="targetPoint" />
            <mxPoint x="620" y="170" as="sourcePoint" />
            <Array as="points">
              <mxPoint x="730" y="103" />
              <mxPoint x="730" y="103" />
            </Array>
            <mxPoint as="offset" />
          </mxGeometry>
        </mxCell>
        <mxCell id="NIm4viSGHaEsy-3yISOH-2" value="H*" style="ellipse;whiteSpace=wrap;html=1;aspect=fixed;rounded=1;fillColor=#FFFFC0;fontStyle=1;fontSize=14;" parent="Z-nrUpfUwHJtx0alLLF2-1" vertex="1">
          <mxGeometry x="86" y="230" width="40" height="40" as="geometry" />
        </mxCell>
        <mxCell id="Pp9zwiRAr0xerowljrp9-1" value="Y: Platzhalter für Werkstücktyp&lt;br&gt;(F, BOM, BUM, UNKNOWN)" style="text;html=1;strokeColor=#666666;fillColor=#f5f5f5;align=left;verticalAlign=middle;whiteSpace=wrap;rounded=0;fontSize=11;fontStyle=2;fontColor=#333333;" parent="Z-nrUpfUwHJtx0alLLF2-1" vertex="1">
          <mxGeometry x="660" y="255" width="170" height="40" as="geometry" />
        </mxCell>
        <mxCell id="Z-nrUpfUwHJtx0alLLF2-16" value="EmergencyHalt" style="swimlane;fontStyle=1;align=center;verticalAlign=middle;childLayout=stackLayout;horizontal=1;startSize=30;horizontalStack=0;resizeParent=0;resizeLast=1;container=0;fontColor=#000000;collapsible=0;rounded=1;arcSize=30;strokeColor=#ff0000;fillColor=#ffffc0;swimlaneFillColor=#ffffc0;dropTarget=0;" parent="1" vertex="1">
          <mxGeometry x="560" y="400" width="190" height="85" as="geometry" />
        </mxCell>
        <mxCell id="Z-nrUpfUwHJtx0alLLF2-17" value="entry / motorStop()&lt;br&gt;exit /" style="text;html=1;strokeColor=none;fillColor=none;align=left;verticalAlign=top;spacingLeft=4;spacingRight=4;whiteSpace=wrap;overflow=hidden;rotatable=0;fontColor=#000000;" parent="Z-nrUpfUwHJtx0alLLF2-16" vertex="1">
          <mxGeometry y="30" width="190" height="55" as="geometry" />
        </mxCell>
        <mxCell id="Z-nrUpfUwHJtx0alLLF2-18" value="MODE_EMERGENCY" style="edgeStyle=orthogonalEdgeStyle;html=1;verticalAlign=bottom;endArrow=open;endSize=8;strokeColor=#ff0000;rounded=0;entryX=0.5;entryY=0;entryDx=0;entryDy=0;fontStyle=1" parent="1" target="Z-nrUpfUwHJtx0alLLF2-16" edge="1">
          <mxGeometry x="0.3333" relative="1" as="geometry">
            <mxPoint x="220" y="520" as="targetPoint" />
            <mxPoint x="655" y="340" as="sourcePoint" />
            <Array as="points">
              <mxPoint x="655" y="380" />
              <mxPoint x="655" y="380" />
            </Array>
            <mxPoint as="offset" />
          </mxGeometry>
        </mxCell>
        <mxCell id="Z-nrUpfUwHJtx0alLLF2-19" value="MODE_STANDBY" style="edgeStyle=orthogonalEdgeStyle;html=1;verticalAlign=bottom;endArrow=open;endSize=8;strokeColor=#ff0000;rounded=0;exitX=0;exitY=0.25;exitDx=0;exitDy=0;fontStyle=1" parent="1" source="Z-nrUpfUwHJtx0alLLF2-17" edge="1">
          <mxGeometry x="-0.0019" relative="1" as="geometry">
            <mxPoint x="480" y="340" as="targetPoint" />
            <mxPoint x="510" y="470" as="sourcePoint" />
            <Array as="points">
              <mxPoint x="480" y="444" />
            </Array>
            <mxPoint as="offset" />
          </mxGeometry>
        </mxCell>
        <mxCell id="NIm4viSGHaEsy-3yISOH-1" value="ERROR_OCCURED" style="edgeStyle=orthogonalEdgeStyle;html=1;verticalAlign=bottom;endArrow=open;endSize=8;strokeColor=#ff0000;rounded=0;entryX=0.75;entryY=0;entryDx=0;entryDy=0;fontStyle=1" parent="1" target="NIm4viSGHaEsy-3yISOH-9" edge="1">
          <mxGeometry x="0.3388" y="28" relative="1" as="geometry">
            <mxPoint x="798" y="495" as="targetPoint" />
            <mxPoint x="241" y="340" as="sourcePoint" />
            <Array as="points" />
            <mxPoint as="offset" />
          </mxGeometry>
        </mxCell>
        <mxCell id="NIm4viSGHaEsy-3yISOH-3" value="ERROR_SOLVED" style="edgeStyle=orthogonalEdgeStyle;html=1;verticalAlign=bottom;endArrow=open;endSize=8;strokeColor=#ff0000;rounded=0;exitX=0.25;exitY=0;exitDx=0;exitDy=0;entryX=0.5;entryY=1;entryDx=0;entryDy=0;fontStyle=1" parent="1" source="NIm4viSGHaEsy-3yISOH-9" target="NIm4viSGHaEsy-3yISOH-2" edge="1">
          <mxGeometry x="-0.4008" y="8" relative="1" as="geometry">
            <mxPoint x="158" y="330" as="targetPoint" />
            <mxPoint x="758" y="495" as="sourcePoint" />
            <Array as="points">
              <mxPoint x="146" y="405" />
              <mxPoint x="146" y="310" />
            </Array>
            <mxPoint as="offset" />
          </mxGeometry>
        </mxCell>
        <mxCell id="NIm4viSGHaEsy-3yISOH-9" value="ErrorHalt" style="swimlane;fontStyle=1;align=center;verticalAlign=middle;childLayout=stackLayout;horizontal=1;startSize=30;horizontalStack=0;resizeParent=0;resizeLast=1;container=0;fontColor=#000000;collapsible=0;rounded=1;arcSize=30;strokeColor=#ff0000;fillColor=#ffffc0;swimlaneFillColor=#ffffc0;dropTarget=0;" parent="1" vertex="1">
          <mxGeometry x="98" y="400" width="190" height="85" as="geometry" />
        </mxCell>
        <mxCell id="NIm4viSGHaEsy-3yISOH-10" value="entry / motorStop()&lt;br&gt;exit /" style="text;html=1;strokeColor=none;fillColor=none;align=left;verticalAlign=top;spacingLeft=4;spacingRight=4;whiteSpace=wrap;overflow=hidden;rotatable=0;fontColor=#000000;" parent="NIm4viSGHaEsy-3yISOH-9" vertex="1">
          <mxGeometry y="30" width="190" height="55" as="geometry" />
        </mxCell>
      </root>
    </mxGraphModel>
  </diagram>
  <diagram id="-DeEghA5fQ5Gg9FcZ6ZU" name="height">
    <mxGraphModel dx="1050" dy="577" grid="1" gridSize="10" guides="1" tooltips="1" connect="1" arrows="1" fold="1" page="1" pageScale="1" pageWidth="827" pageHeight="1169" math="0" shadow="0">
      <root>
        <mxCell id="0" />
        <mxCell id="1" parent="0" />
        <mxCell id="rk6V-RYVs7dWorNxL_6G-1" value="&lt;font face=&quot;Verdana&quot; style=&quot;font-size: 17px&quot;&gt;HeightSensorFSM&lt;/font&gt;" style="swimlane;html=1;fontStyle=1;align=center;verticalAlign=middle;childLayout=stackLayout;horizontal=1;startSize=30;horizontalStack=0;resizeParent=0;resizeLast=1;container=0;fontColor=#000000;collapsible=0;rounded=1;arcSize=30;strokeColor=#000000;swimlaneFillColor=#FFFFFF;dropTarget=0;fillColor=#FFFFFF;strokeWidth=2;" parent="1" vertex="1">
          <mxGeometry x="80" y="80" width="650" height="330" as="geometry" />
        </mxCell>
        <mxCell id="zp2sOp-gNq_USo4XBr-o-1" value="Idle" style="swimlane;fontStyle=1;align=center;verticalAlign=middle;childLayout=stackLayout;horizontal=1;startSize=30;horizontalStack=0;resizeParent=0;resizeLast=1;container=0;fontColor=#000000;collapsible=0;rounded=1;arcSize=30;strokeColor=#ff0000;fillColor=#ffffc0;swimlaneFillColor=#ffffc0;dropTarget=0;" parent="1" vertex="1">
          <mxGeometry x="180" y="130" width="160" height="60" as="geometry" />
        </mxCell>
        <mxCell id="zp2sOp-gNq_USo4XBr-o-2" value="entry / stopMeasurement()" style="text;html=1;strokeColor=none;fillColor=none;align=left;verticalAlign=middle;spacingLeft=4;spacingRight=4;whiteSpace=wrap;overflow=hidden;rotatable=0;fontColor=#000000;" parent="zp2sOp-gNq_USo4XBr-o-1" vertex="1">
          <mxGeometry y="30" width="160" height="30" as="geometry" />
        </mxCell>
        <mxCell id="zp2sOp-gNq_USo4XBr-o-3" value="WS_INSERTED" style="edgeStyle=orthogonalEdgeStyle;html=1;verticalAlign=bottom;endArrow=open;endSize=8;strokeColor=#ff0000;rounded=0;fontStyle=1" parent="1" source="zp2sOp-gNq_USo4XBr-o-1" target="zp2sOp-gNq_USo4XBr-o-7" edge="1">
          <mxGeometry relative="1" as="geometry">
            <mxPoint x="260" y="250" as="targetPoint" />
            <Array as="points" />
          </mxGeometry>
        </mxCell>
        <mxCell id="zp2sOp-gNq_USo4XBr-o-4" value="" style="ellipse;html=1;shape=startState;fillColor=#000000;strokeColor=#ff0000;" parent="1" vertex="1">
          <mxGeometry x="100" y="145" width="30" height="30" as="geometry" />
        </mxCell>
        <mxCell id="zp2sOp-gNq_USo4XBr-o-5" value="" style="edgeStyle=orthogonalEdgeStyle;html=1;verticalAlign=bottom;endArrow=open;endSize=8;strokeColor=#ff0000;rounded=0;entryX=0;entryY=0;entryDx=0;entryDy=0;" parent="1" source="zp2sOp-gNq_USo4XBr-o-4" target="zp2sOp-gNq_USo4XBr-o-2" edge="1">
          <mxGeometry relative="1" as="geometry">
            <mxPoint x="75" y="240" as="targetPoint" />
            <Array as="points">
              <mxPoint x="160" y="160" />
              <mxPoint x="160" y="160" />
            </Array>
          </mxGeometry>
        </mxCell>
        <mxCell id="zp2sOp-gNq_USo4XBr-o-7" value="WaitForWorkpiece" style="swimlane;fontStyle=1;align=center;verticalAlign=middle;childLayout=stackLayout;horizontal=1;startSize=30;horizontalStack=0;resizeParent=0;resizeLast=1;container=0;fontColor=#000000;collapsible=0;rounded=1;arcSize=30;strokeColor=#ff0000;fillColor=#ffffc0;swimlaneFillColor=#ffffc0;dropTarget=0;" parent="1" vertex="1">
          <mxGeometry x="486" y="125" width="209" height="70" as="geometry" />
        </mxCell>
        <mxCell id="zp2sOp-gNq_USo4XBr-o-8" value="entry / receivingRoutine()&lt;br&gt;do / height = measure()" style="text;html=1;strokeColor=none;fillColor=none;align=center;verticalAlign=middle;spacingLeft=4;spacingRight=4;whiteSpace=wrap;overflow=hidden;rotatable=0;fontColor=#000000;" parent="zp2sOp-gNq_USo4XBr-o-7" vertex="1">
          <mxGeometry y="30" width="209" height="40" as="geometry" />
        </mxCell>
        <mxCell id="zp2sOp-gNq_USo4XBr-o-11" value="DetermineType" style="swimlane;fontStyle=1;align=center;verticalAlign=middle;childLayout=stackLayout;horizontal=1;startSize=30;horizontalStack=0;resizeParent=0;resizeLast=1;container=0;fontColor=#000000;collapsible=0;rounded=1;arcSize=30;strokeColor=#ff0000;fillColor=#ffffc0;swimlaneFillColor=#ffffc0;dropTarget=0;" parent="1" vertex="1">
          <mxGeometry x="470.5" y="280" width="240" height="110" as="geometry" />
        </mxCell>
        <mxCell id="zp2sOp-gNq_USo4XBr-o-12" value="entry / sendEvent(HM_X_NEW_WS)&lt;br&gt;entry / type = HM_X_WS_UNKNOWN&lt;br&gt;do /&amp;nbsp; &amp;nbsp; &amp;nbsp;height = measure()&lt;br&gt;do /&amp;nbsp; &amp;nbsp; &amp;nbsp;type = heightToWsType(height)" style="text;html=1;strokeColor=none;fillColor=none;align=left;verticalAlign=middle;spacingLeft=4;spacingRight=4;whiteSpace=wrap;overflow=hidden;rotatable=0;fontColor=#000000;" parent="zp2sOp-gNq_USo4XBr-o-11" vertex="1">
          <mxGeometry y="30" width="240" height="80" as="geometry" />
        </mxCell>
        <mxCell id="zp2sOp-gNq_USo4XBr-o-13" value="when height &amp;gt; 5mm" style="edgeStyle=orthogonalEdgeStyle;rounded=0;orthogonalLoop=1;jettySize=auto;html=1;strokeColor=#FF0000;endArrow=open;endFill=0;fontStyle=1" parent="1" source="zp2sOp-gNq_USo4XBr-o-7" target="zp2sOp-gNq_USo4XBr-o-11" edge="1">
          <mxGeometry x="-0.0038" relative="1" as="geometry">
            <mxPoint as="offset" />
          </mxGeometry>
        </mxCell>
        <mxCell id="zp2sOp-gNq_USo4XBr-o-14" value="&lt;b&gt;when height &amp;lt;= 5mm&amp;nbsp;&lt;/b&gt;/ &lt;br&gt;sendEventWithData(type, height)" style="edgeStyle=orthogonalEdgeStyle;rounded=0;orthogonalLoop=1;jettySize=auto;html=1;strokeColor=#FF0000;endArrow=open;endFill=0;align=left;exitX=0;exitY=0.25;exitDx=0;exitDy=0;" parent="1" source="zp2sOp-gNq_USo4XBr-o-12" target="zp2sOp-gNq_USo4XBr-o-1" edge="1">
          <mxGeometry x="-0.0271" y="-20" relative="1" as="geometry">
            <Array as="points">
              <mxPoint x="260" y="330" />
            </Array>
            <mxPoint as="offset" />
          </mxGeometry>
        </mxCell>
      </root>
    </mxGraphModel>
  </diagram>
  <diagram id="MBHLJN8OKPfu2FncaC5H" name="estopp">
    <mxGraphModel dx="1235" dy="679" grid="1" gridSize="10" guides="1" tooltips="1" connect="1" arrows="1" fold="1" page="1" pageScale="1" pageWidth="827" pageHeight="1169" math="0" shadow="0">
      <root>
        <mxCell id="0" />
        <mxCell id="1" parent="0" />
        <mxCell id="TPXfKYQTeiBvo_vZP91i-1" value="&lt;font face=&quot;Verdana&quot; style=&quot;font-size: 17px&quot;&gt;EStoppFSM&lt;/font&gt;" style="swimlane;html=1;fontStyle=1;align=center;verticalAlign=middle;childLayout=stackLayout;horizontal=1;startSize=30;horizontalStack=0;resizeParent=0;resizeLast=1;container=0;fontColor=#000000;collapsible=0;rounded=1;arcSize=30;strokeColor=#000000;swimlaneFillColor=#FFFFFF;dropTarget=0;fillColor=#FFFFFF;strokeWidth=2;" parent="1" vertex="1">
          <mxGeometry x="260" y="250" width="870" height="330" as="geometry" />
        </mxCell>
        <mxCell id="TPXfKYQTeiBvo_vZP91i-3" value="&lt;span style=&quot;color: rgba(0 , 0 , 0 , 0) ; font-family: monospace ; font-size: 0px&quot;&gt;%3CmxGraphModel%3E%3Croot%3E%3CmxCell%20id%3D%220%22%2F%3E%3CmxCell%20id%3D%221%22%20parent%3D%220%22%2F%3E%3CmxCell%20id%3D%222%22%20value%3D%22EVNT_HW_E-STOPP_PRESSED%22%20style%3D%22edgeLabel%3Bhtml%3D1%3Balign%3Dcenter%3BverticalAlign%3Dmiddle%3Bresizable%3D0%3Bpoints%3D%5B%5D%3B%22%20vertex%3D%221%22%20connectable%3D%220%22%20parent%3D%221%22%3E%3CmxGeometry%20x%3D%22260.2352941176471%22%20y%3D%22572.9999999999998%22%20as%3D%22geometry%22%2F%3E%3C%2FmxCell%3E%3C%2Froot%3E%3C%2FmxGraphModel%3E&lt;/span&gt;" style="text;html=1;align=center;verticalAlign=middle;resizable=0;points=[];autosize=1;strokeColor=none;" parent="1" vertex="1">
          <mxGeometry x="120" y="420" width="20" height="20" as="geometry" />
        </mxCell>
        <mxCell id="TPXfKYQTeiBvo_vZP91i-10" value="&lt;span style=&quot;color: rgba(0 , 0 , 0 , 0) ; font-family: monospace ; font-size: 0px&quot;&gt;%3CmxGraphModel%3E%3Croot%3E%3CmxCell%20id%3D%220%22%2F%3E%3CmxCell%20id%3D%221%22%20parent%3D%220%22%2F%3E%3CmxCell%20id%3D%222%22%20value%3D%22EVNT_HW_E-STOPP_PRESSED%22%20style%3D%22edgeLabel%3Bhtml%3D1%3Balign%3Dcenter%3BverticalAlign%3Dmiddle%3Bresizable%3D0%3Bpoints%3D%5B%5D%3B%22%20vertex%3D%221%22%20connectable%3D%220%22%20parent%3D%221%22%3E%3CmxGeometry%20x%3D%22260.2352941176471%22%20y%3D%22572.9999999999998%22%20as%3D%22geometry%22%2F%3E%3C%2FmxCell%3E%3C%2Froot%3E%3C%2FmxGraphModel%3E&lt;/span&gt;" style="text;html=1;align=center;verticalAlign=middle;resizable=0;points=[];autosize=1;strokeColor=none;" parent="1" vertex="1">
          <mxGeometry x="1124" y="419.82" width="20" height="20" as="geometry" />
        </mxCell>
        <mxCell id="TPXfKYQTeiBvo_vZP91i-11" value="" style="ellipse;html=1;shape=endState;fillColor=#000000;strokeColor=#000000;" parent="1" vertex="1">
          <mxGeometry x="1080" y="480" width="30" height="30" as="geometry" />
        </mxCell>
        <mxCell id="TPXfKYQTeiBvo_vZP91i-14" value="&lt;b&gt;when released&lt;/b&gt; / &lt;br&gt;reset[M]=false; reset[S]=false" style="text;html=1;align=left;verticalAlign=middle;resizable=0;points=[];autosize=1;strokeColor=none;" parent="1" vertex="1">
          <mxGeometry x="620" y="380.00000000000006" width="180" height="40" as="geometry" />
        </mxCell>
        <mxCell id="TPXfKYQTeiBvo_vZP91i-15" value="&lt;b&gt;when resetted&lt;/b&gt;" style="text;html=1;align=center;verticalAlign=middle;resizable=0;points=[];autosize=1;strokeColor=none;" parent="1" vertex="1">
          <mxGeometry x="1030" y="390.00000000000006" width="100" height="30" as="geometry" />
        </mxCell>
        <mxCell id="TPXfKYQTeiBvo_vZP91i-18" value="&lt;b style=&quot;border-color: var(--border-color); font-family: Verdana; font-size: 11px; background-color: rgb(255, 255, 255);&quot;&gt;ESTOP_X_PRESSED&lt;/b&gt;&amp;nbsp;/ &lt;br&gt;estop[X]=true" style="text;html=1;align=left;verticalAlign=middle;resizable=0;points=[];autosize=1;strokeColor=none;" parent="1" vertex="1">
          <mxGeometry x="620" y="460" width="150" height="40" as="geometry" />
        </mxCell>
        <mxCell id="TPXfKYQTeiBvo_vZP91i-23" value="&lt;b&gt;ESTOP_X_RELEASED&lt;/b&gt;&lt;br&gt;/ estop[X]=false" style="text;html=1;align=center;verticalAlign=middle;resizable=0;points=[];autosize=1;strokeColor=none;" parent="1" vertex="1">
          <mxGeometry x="425" y="520" width="150" height="40" as="geometry" />
        </mxCell>
        <mxCell id="TPXfKYQTeiBvo_vZP91i-28" value="&lt;b style=&quot;border-color: var(--border-color); font-family: Verdana; font-size: 11px; background-color: rgb(255, 255, 255);&quot;&gt;ESTOP_X_PRESSED&lt;/b&gt;&lt;span style=&quot;border-color: var(--border-color); font-family: Verdana; font-size: 11px; background-color: rgb(255, 255, 255);&quot;&gt;&amp;nbsp;/ estop[X]=true&lt;/span&gt;" style="text;html=1;align=center;verticalAlign=middle;resizable=0;points=[];autosize=1;strokeColor=none;fillColor=none;" parent="1" vertex="1">
          <mxGeometry x="380" y="315" width="240" height="30" as="geometry" />
        </mxCell>
        <mxCell id="vjS1iwwZdkTLCiztDkQr-3" value="X: Platzhalter für Systemtyp (M=Master, S=Slave)" style="text;html=1;strokeColor=none;fillColor=none;align=left;verticalAlign=middle;whiteSpace=wrap;rounded=0;fontSize=14;fontStyle=1" parent="1" vertex="1">
          <mxGeometry x="279" y="200" width="201" height="40" as="geometry" />
        </mxCell>
        <mxCell id="vjS1iwwZdkTLCiztDkQr-8" value="&lt;b style=&quot;border-color: var(--border-color); font-family: Verdana; font-size: 11px; background-color: rgb(255, 255, 255);&quot;&gt;RESET_X_PRESSED&lt;/b&gt;&lt;span style=&quot;border-color: var(--border-color); font-family: Verdana; font-size: 11px; background-color: rgb(255, 255, 255);&quot;&gt;&amp;nbsp;/ reset[X]=true&lt;/span&gt;" style="text;html=1;align=center;verticalAlign=middle;resizable=0;points=[];autosize=1;strokeColor=none;fillColor=none;" parent="1" vertex="1">
          <mxGeometry x="800" y="315" width="230" height="30" as="geometry" />
        </mxCell>
        <mxCell id="NBMITL-H3YoFe6lFK3sR-1" value="Stop" style="swimlane;fontStyle=1;align=center;verticalAlign=middle;childLayout=stackLayout;horizontal=1;startSize=30;horizontalStack=0;resizeParent=0;resizeLast=1;container=0;fontColor=#000000;collapsible=0;rounded=1;arcSize=30;strokeColor=#ff0000;fillColor=#ffffc0;swimlaneFillColor=#ffffc0;dropTarget=0;" parent="1" vertex="1">
          <mxGeometry x="395" y="368.82" width="200" height="110" as="geometry" />
        </mxCell>
        <mxCell id="NBMITL-H3YoFe6lFK3sR-2" value="entry/ allOff()&lt;br style=&quot;border-color: var(--border-color);&quot;&gt;&lt;span style=&quot;&quot;&gt;entry/ sendEvent(MODE_ESTOP)&lt;/span&gt;&lt;br style=&quot;border-color: var(--border-color);&quot;&gt;&lt;span style=&quot;&quot;&gt;released = !estop[M]&lt;/span&gt;&lt;span style=&quot;&quot;&gt;&amp;nbsp;&amp;amp;&amp;amp; !estop[S]&lt;/span&gt;" style="text;html=1;strokeColor=none;fillColor=none;align=left;verticalAlign=middle;spacingLeft=4;spacingRight=4;whiteSpace=wrap;overflow=hidden;rotatable=0;fontColor=#000000;" parent="NBMITL-H3YoFe6lFK3sR-1" vertex="1">
          <mxGeometry y="30" width="200" height="80" as="geometry" />
        </mxCell>
        <mxCell id="NBMITL-H3YoFe6lFK3sR-12" style="edgeStyle=orthogonalEdgeStyle;rounded=0;orthogonalLoop=1;jettySize=auto;html=1;exitX=0.25;exitY=1;exitDx=0;exitDy=0;entryX=0.75;entryY=1;entryDx=0;entryDy=0;strokeColor=#FF0000;endArrow=open;endFill=0;" parent="NBMITL-H3YoFe6lFK3sR-1" source="NBMITL-H3YoFe6lFK3sR-2" target="NBMITL-H3YoFe6lFK3sR-2" edge="1">
          <mxGeometry relative="1" as="geometry">
            <Array as="points">
              <mxPoint x="50" y="151" />
              <mxPoint x="150" y="151" />
            </Array>
          </mxGeometry>
        </mxCell>
        <mxCell id="NBMITL-H3YoFe6lFK3sR-6" value="Unlocked" style="swimlane;fontStyle=1;align=center;verticalAlign=middle;childLayout=stackLayout;horizontal=1;startSize=30;horizontalStack=0;resizeParent=0;resizeLast=1;container=0;fontColor=#000000;collapsible=0;rounded=1;arcSize=30;strokeColor=#ff0000;fillColor=#ffffc0;swimlaneFillColor=#ffffc0;dropTarget=0;" parent="1" vertex="1">
          <mxGeometry x="810" y="368.82" width="220" height="110" as="geometry" />
        </mxCell>
        <mxCell id="NBMITL-H3YoFe6lFK3sR-7" value="entry/&amp;nbsp;resetted = reset[M]&lt;span style=&quot;&quot;&gt;&amp;nbsp;&amp;amp;&amp;amp; reset[S]&lt;/span&gt;" style="text;html=1;strokeColor=none;fillColor=none;align=left;verticalAlign=middle;spacingLeft=4;spacingRight=4;whiteSpace=wrap;overflow=hidden;rotatable=0;fontColor=#000000;" parent="NBMITL-H3YoFe6lFK3sR-6" vertex="1">
          <mxGeometry y="30" width="220" height="80" as="geometry" />
        </mxCell>
        <mxCell id="NBMITL-H3YoFe6lFK3sR-8" style="edgeStyle=orthogonalEdgeStyle;rounded=0;orthogonalLoop=1;jettySize=auto;html=1;exitX=0;exitY=0.75;exitDx=0;exitDy=0;entryX=1;entryY=0.75;entryDx=0;entryDy=0;strokeColor=#FF0000;endArrow=open;endFill=0;" parent="1" source="NBMITL-H3YoFe6lFK3sR-7" target="NBMITL-H3YoFe6lFK3sR-2" edge="1">
          <mxGeometry relative="1" as="geometry" />
        </mxCell>
        <mxCell id="NBMITL-H3YoFe6lFK3sR-9" style="edgeStyle=orthogonalEdgeStyle;rounded=0;orthogonalLoop=1;jettySize=auto;html=1;exitX=1;exitY=0.25;exitDx=0;exitDy=0;entryX=0;entryY=0.25;entryDx=0;entryDy=0;strokeColor=#FF0000;endArrow=open;endFill=0;" parent="1" source="NBMITL-H3YoFe6lFK3sR-2" target="NBMITL-H3YoFe6lFK3sR-7" edge="1">
          <mxGeometry relative="1" as="geometry" />
        </mxCell>
        <mxCell id="NBMITL-H3YoFe6lFK3sR-10" style="edgeStyle=orthogonalEdgeStyle;rounded=0;orthogonalLoop=1;jettySize=auto;html=1;exitX=0.25;exitY=0;exitDx=0;exitDy=0;entryX=0.75;entryY=0;entryDx=0;entryDy=0;strokeColor=#FF0000;endArrow=open;endFill=0;" parent="1" source="NBMITL-H3YoFe6lFK3sR-6" target="NBMITL-H3YoFe6lFK3sR-6" edge="1">
          <mxGeometry relative="1" as="geometry">
            <Array as="points">
              <mxPoint x="865" y="340" />
              <mxPoint x="975" y="340" />
            </Array>
          </mxGeometry>
        </mxCell>
        <mxCell id="NBMITL-H3YoFe6lFK3sR-11" style="edgeStyle=orthogonalEdgeStyle;rounded=0;orthogonalLoop=1;jettySize=auto;html=1;exitX=1;exitY=0.25;exitDx=0;exitDy=0;strokeColor=#FF0000;endArrow=open;endFill=0;entryX=0.5;entryY=0;entryDx=0;entryDy=0;" parent="1" source="NBMITL-H3YoFe6lFK3sR-7" target="TPXfKYQTeiBvo_vZP91i-11" edge="1">
          <mxGeometry relative="1" as="geometry">
            <mxPoint x="1105" y="460" as="targetPoint" />
          </mxGeometry>
        </mxCell>
        <mxCell id="NBMITL-H3YoFe6lFK3sR-14" style="edgeStyle=orthogonalEdgeStyle;rounded=0;orthogonalLoop=1;jettySize=auto;html=1;exitX=0.75;exitY=0;exitDx=0;exitDy=0;strokeColor=#FF0000;endArrow=open;endFill=0;" parent="1" source="NBMITL-H3YoFe6lFK3sR-1" edge="1">
          <mxGeometry relative="1" as="geometry">
            <mxPoint x="445" y="370" as="targetPoint" />
            <Array as="points">
              <mxPoint x="545" y="340" />
              <mxPoint x="445" y="340" />
            </Array>
          </mxGeometry>
        </mxCell>
        <mxCell id="TPXfKYQTeiBvo_vZP91i-8" value="" style="ellipse;html=1;shape=startState;fillColor=#000000;strokeColor=none;" parent="1" vertex="1">
          <mxGeometry x="294" y="423.82000000000005" width="30" height="30" as="geometry" />
        </mxCell>
        <mxCell id="NBMITL-H3YoFe6lFK3sR-15" style="edgeStyle=orthogonalEdgeStyle;rounded=0;orthogonalLoop=1;jettySize=auto;html=1;exitX=0;exitY=0.5;exitDx=0;exitDy=0;entryX=1;entryY=0.5;entryDx=0;entryDy=0;strokeColor=#FF0000;endArrow=none;endFill=0;startArrow=open;startFill=0;" parent="1" source="NBMITL-H3YoFe6lFK3sR-2" target="TPXfKYQTeiBvo_vZP91i-8" edge="1">
          <mxGeometry relative="1" as="geometry" />
        </mxCell>
        <mxCell id="HhWaPj5sWqkO8pxsPsiB-1" style="edgeStyle=orthogonalEdgeStyle;rounded=0;orthogonalLoop=1;jettySize=auto;html=1;strokeColor=#FF0000;endArrow=none;endFill=0;startArrow=open;startFill=0;" parent="1" edge="1">
          <mxGeometry relative="1" as="geometry">
            <mxPoint x="260" y="440" as="sourcePoint" />
            <mxPoint x="40" y="440" as="targetPoint" />
          </mxGeometry>
        </mxCell>
        <mxCell id="HhWaPj5sWqkO8pxsPsiB-2" value="&lt;b style=&quot;border-color: var(--border-color); font-size: 11px; font-family: Verdana;&quot;&gt;ESTOP_X_PRESSED&lt;/b&gt;&amp;nbsp;/ &lt;br&gt;estop[X]=true;&amp;nbsp;sendEvent(MODE_ESTOP)" style="text;html=1;align=center;verticalAlign=middle;resizable=0;points=[];autosize=1;strokeColor=none;fillColor=none;" parent="1" vertex="1">
          <mxGeometry x="10" y="400" width="250" height="40" as="geometry" />
        </mxCell>
      </root>
    </mxGraphModel>
  </diagram>
  <diagram id="dVWcZfwFJHcqeEnt2Z6f" name="error">
    <mxGraphModel dx="1750" dy="962" grid="1" gridSize="10" guides="1" tooltips="1" connect="1" arrows="1" fold="1" page="1" pageScale="1" pageWidth="827" pageHeight="1169" math="0" shadow="0">
      <root>
        <mxCell id="0" />
        <mxCell id="1" parent="0" />
        <mxCell id="U5ZJ4xXBfAkojhUhUDUs-18" style="edgeStyle=orthogonalEdgeStyle;rounded=0;orthogonalLoop=1;jettySize=auto;html=1;exitX=0.5;exitY=1;exitDx=0;exitDy=0;" parent="1" edge="1">
          <mxGeometry relative="1" as="geometry">
            <mxPoint x="555" y="700" as="sourcePoint" />
            <mxPoint x="555" y="700" as="targetPoint" />
          </mxGeometry>
        </mxCell>
        <mxCell id="3qVbGaDPwB3dUK9NE_3y-1" style="edgeStyle=orthogonalEdgeStyle;rounded=0;orthogonalLoop=1;jettySize=auto;html=1;entryX=1;entryY=0.5;entryDx=0;entryDy=0;" edge="1" parent="1" source="3qVbGaDPwB3dUK9NE_3y-2" target="3qVbGaDPwB3dUK9NE_3y-24">
          <mxGeometry relative="1" as="geometry">
            <Array as="points">
              <mxPoint x="875" y="780" />
            </Array>
          </mxGeometry>
        </mxCell>
        <mxCell id="3qVbGaDPwB3dUK9NE_3y-2" value="&lt;font style=&quot;font-size: 17px&quot; face=&quot;Verdana&quot;&gt;ErrorFSM&lt;/font&gt;" style="swimlane;html=1;fontStyle=1;align=center;verticalAlign=middle;childLayout=stackLayout;horizontal=1;startSize=30;horizontalStack=0;resizeParent=0;resizeLast=1;container=0;fontColor=#000000;collapsible=0;rounded=1;arcSize=30;strokeColor=#000000;swimlaneFillColor=none;dropTarget=0;swimlaneLine=1;shadow=0;glass=0;sketch=0;fillColor=none;strokeWidth=2;" vertex="1" parent="1">
          <mxGeometry x="250" y="10" width="1140" height="640" as="geometry" />
        </mxCell>
        <mxCell id="3qVbGaDPwB3dUK9NE_3y-3" value="" style="ellipse;html=1;shape=startState;fillColor=#000000;strokeColor=none;rounded=1;shadow=0;comic=0;labelBackgroundColor=none;fontFamily=Verdana;fontSize=12;fontColor=#000000;align=center;direction=south;" vertex="1" parent="1">
          <mxGeometry x="260" y="235" width="30" height="30" as="geometry" />
        </mxCell>
        <mxCell id="3qVbGaDPwB3dUK9NE_3y-4" style="edgeStyle=orthogonalEdgeStyle;html=1;labelBackgroundColor=none;endArrow=open;endSize=8;strokeColor=#000000;fontFamily=Verdana;fontSize=12;align=left;" edge="1" parent="1" source="3qVbGaDPwB3dUK9NE_3y-3" target="3qVbGaDPwB3dUK9NE_3y-6">
          <mxGeometry relative="1" as="geometry">
            <mxPoint x="430" y="150" as="targetPoint" />
          </mxGeometry>
        </mxCell>
        <mxCell id="3qVbGaDPwB3dUK9NE_3y-5" style="edgeStyle=orthogonalEdgeStyle;rounded=0;orthogonalLoop=1;jettySize=auto;html=1;exitX=0.5;exitY=0;exitDx=0;exitDy=0;" edge="1" parent="1" source="3qVbGaDPwB3dUK9NE_3y-6">
          <mxGeometry relative="1" as="geometry">
            <mxPoint x="470" y="190" as="targetPoint" />
            <Array as="points">
              <mxPoint x="520" y="150" />
              <mxPoint x="471" y="150" />
              <mxPoint x="471" y="190" />
            </Array>
          </mxGeometry>
        </mxCell>
        <mxCell id="3qVbGaDPwB3dUK9NE_3y-6" value="Pending Unresigned" style="swimlane;html=1;fontStyle=1;align=center;verticalAlign=middle;childLayout=stackLayout;horizontal=1;startSize=30;horizontalStack=0;resizeParent=0;resizeLast=1;container=0;fontColor=#000000;collapsible=0;rounded=1;arcSize=30;strokeColor=#ff0000;fillColor=#ffffc0;swimlaneFillColor=#ffffc0;dropTarget=0;swimlaneLine=1;shadow=0;glass=0;sketch=0;" vertex="1" parent="1">
          <mxGeometry x="400" y="200" width="240" height="100" as="geometry" />
        </mxCell>
        <mxCell id="3qVbGaDPwB3dUK9NE_3y-7" value="&lt;font style=&quot;font-size: 13px&quot;&gt;entry / greenLampOff()&lt;br&gt;&amp;nbsp; &amp;nbsp; &amp;nbsp; &amp;nbsp; &amp;nbsp; &amp;nbsp;redLampFlashingFast()&lt;br&gt;&lt;/font&gt;" style="text;html=1;strokeColor=none;fillColor=none;align=left;verticalAlign=top;spacingLeft=4;spacingRight=4;whiteSpace=wrap;overflow=hidden;rotatable=0;fontColor=#000000;" vertex="1" parent="3qVbGaDPwB3dUK9NE_3y-6">
          <mxGeometry y="30" width="240" height="70" as="geometry" />
        </mxCell>
        <mxCell id="3qVbGaDPwB3dUK9NE_3y-8" style="edgeStyle=orthogonalEdgeStyle;rounded=0;orthogonalLoop=1;jettySize=auto;html=1;exitX=0.25;exitY=1;exitDx=0;exitDy=0;entryX=0;entryY=1;entryDx=0;entryDy=0;" edge="1" parent="3qVbGaDPwB3dUK9NE_3y-6" source="3qVbGaDPwB3dUK9NE_3y-7" target="3qVbGaDPwB3dUK9NE_3y-7">
          <mxGeometry relative="1" as="geometry">
            <Array as="points">
              <mxPoint x="60" y="160" />
              <mxPoint y="160" />
            </Array>
          </mxGeometry>
        </mxCell>
        <mxCell id="3qVbGaDPwB3dUK9NE_3y-9" style="edgeStyle=orthogonalEdgeStyle;html=1;labelBackgroundColor=none;endArrow=open;endSize=8;strokeColor=#000000;fontFamily=Verdana;fontSize=12;align=left;" edge="1" parent="1" source="3qVbGaDPwB3dUK9NE_3y-6" target="3qVbGaDPwB3dUK9NE_3y-12">
          <mxGeometry relative="1" as="geometry">
            <mxPoint x="620" y="210" as="sourcePoint" />
            <mxPoint x="820" y="230" as="targetPoint" />
            <Array as="points">
              <mxPoint x="750" y="240" />
              <mxPoint x="750" y="240" />
            </Array>
          </mxGeometry>
        </mxCell>
        <mxCell id="3qVbGaDPwB3dUK9NE_3y-10" value="&lt;font style=&quot;font-size: 12px&quot; face=&quot;Verdana&quot;&gt;&lt;b&gt;RESET_PRESSED_SHORT&lt;br&gt;[selfSolving=false]&lt;br&gt;&lt;/b&gt;&lt;/font&gt;" style="edgeLabel;html=1;align=center;verticalAlign=middle;resizable=0;points=[];" vertex="1" connectable="0" parent="3qVbGaDPwB3dUK9NE_3y-9">
          <mxGeometry x="-0.195" y="4" relative="1" as="geometry">
            <mxPoint x="29" y="19" as="offset" />
          </mxGeometry>
        </mxCell>
        <mxCell id="3qVbGaDPwB3dUK9NE_3y-11" value="Pending Resigned" style="swimlane;html=1;fontStyle=1;align=center;verticalAlign=middle;childLayout=stackLayout;horizontal=1;startSize=30;horizontalStack=0;resizeParent=0;resizeLast=1;container=0;fontColor=#000000;collapsible=0;rounded=1;arcSize=30;strokeColor=#ff0000;fillColor=#ffffc0;swimlaneFillColor=#ffffc0;dropTarget=0;" vertex="1" parent="1">
          <mxGeometry x="965" y="180" width="235" height="110" as="geometry" />
        </mxCell>
        <mxCell id="3qVbGaDPwB3dUK9NE_3y-12" value="entry / redLampOn()&lt;br&gt;entry/ print(&quot;Push the Start Button short&quot;)&lt;br&gt;exit /&amp;nbsp; &amp;nbsp;redLampOff()&lt;br&gt;exit/&amp;nbsp; &amp;nbsp; manualSolving=false" style="text;html=1;strokeColor=none;fillColor=none;align=left;verticalAlign=top;spacingLeft=4;spacingRight=4;whiteSpace=wrap;overflow=hidden;rotatable=0;fontColor=#000000;" vertex="1" parent="3qVbGaDPwB3dUK9NE_3y-11">
          <mxGeometry y="30" width="235" height="80" as="geometry" />
        </mxCell>
        <mxCell id="3qVbGaDPwB3dUK9NE_3y-13" value="Solved Unresigned" style="swimlane;html=1;fontStyle=1;align=center;verticalAlign=middle;childLayout=stackLayout;horizontal=1;startSize=30;horizontalStack=0;resizeParent=0;resizeLast=1;container=0;fontColor=#000000;collapsible=0;rounded=1;arcSize=30;strokeColor=#ff0000;fillColor=#ffffc0;swimlaneFillColor=#ffffc0;dropTarget=0;swimlaneLine=1;shadow=0;glass=0;sketch=0;" vertex="1" parent="1">
          <mxGeometry x="400" y="445" width="240" height="105" as="geometry" />
        </mxCell>
        <mxCell id="3qVbGaDPwB3dUK9NE_3y-14" value="entry / redLampFlashingSlow()&lt;br&gt;entry/ print(&quot;Push the Reset Button short&quot;)&lt;br&gt;exit /&amp;nbsp; &amp;nbsp;redLampOff()&lt;br&gt;&lt;span style=&quot;white-space: pre;&quot;&gt;	&amp;nbsp;&lt;/span&gt;&amp;nbsp; selfSolving=false&lt;br&gt;&amp;nbsp; &amp;nbsp; &amp;nbsp; &amp;nbsp;&amp;nbsp;" style="text;html=1;strokeColor=none;fillColor=none;align=left;verticalAlign=top;spacingLeft=4;spacingRight=4;whiteSpace=wrap;overflow=hidden;rotatable=0;fontColor=#000000;" vertex="1" parent="3qVbGaDPwB3dUK9NE_3y-13">
          <mxGeometry y="30" width="240" height="75" as="geometry" />
        </mxCell>
        <mxCell id="3qVbGaDPwB3dUK9NE_3y-15" style="edgeStyle=orthogonalEdgeStyle;html=1;labelBackgroundColor=none;endArrow=open;endSize=8;strokeColor=#000000;fontFamily=Verdana;fontSize=12;align=left;entryX=0.5;entryY=0;entryDx=0;entryDy=0;exitX=0.5;exitY=1;exitDx=0;exitDy=0;" edge="1" parent="1" source="3qVbGaDPwB3dUK9NE_3y-7" target="3qVbGaDPwB3dUK9NE_3y-13">
          <mxGeometry relative="1" as="geometry">
            <mxPoint x="350" y="260" as="sourcePoint" />
            <mxPoint x="410" y="260" as="targetPoint" />
            <Array as="points">
              <mxPoint x="520" y="300" />
              <mxPoint x="520" y="450" />
            </Array>
          </mxGeometry>
        </mxCell>
        <mxCell id="3qVbGaDPwB3dUK9NE_3y-16" value="&lt;font style=&quot;font-size: 12px&quot; face=&quot;Verdana&quot;&gt;&lt;b&gt;&lt;br&gt;&lt;/b&gt;&lt;/font&gt;" style="edgeLabel;html=1;align=center;verticalAlign=middle;resizable=0;points=[];" vertex="1" connectable="0" parent="3qVbGaDPwB3dUK9NE_3y-15">
          <mxGeometry x="-0.2105" y="-1" relative="1" as="geometry">
            <mxPoint x="123" y="-9" as="offset" />
          </mxGeometry>
        </mxCell>
        <mxCell id="3qVbGaDPwB3dUK9NE_3y-17" style="edgeStyle=orthogonalEdgeStyle;rounded=0;orthogonalLoop=1;jettySize=auto;html=1;exitX=0.5;exitY=1;exitDx=0;exitDy=0;" edge="1" parent="1">
          <mxGeometry relative="1" as="geometry">
            <mxPoint x="555" y="700" as="sourcePoint" />
            <mxPoint x="555" y="700" as="targetPoint" />
          </mxGeometry>
        </mxCell>
        <mxCell id="3qVbGaDPwB3dUK9NE_3y-18" value="&lt;b&gt;START_PRESSED_SHORT&lt;/b&gt;" style="edgeStyle=orthogonalEdgeStyle;rounded=0;orthogonalLoop=1;jettySize=auto;html=1;entryX=0.5;entryY=0;entryDx=0;entryDy=0;fontFamily=Verdana;fontSize=12;strokeColor=#000000;" edge="1" parent="1" source="3qVbGaDPwB3dUK9NE_3y-12" target="3qVbGaDPwB3dUK9NE_3y-19">
          <mxGeometry relative="1" as="geometry">
            <mxPoint x="1082.5" y="320" as="targetPoint" />
          </mxGeometry>
        </mxCell>
        <mxCell id="3qVbGaDPwB3dUK9NE_3y-19" value="" style="ellipse;html=1;shape=endState;fillColor=#000000;strokeColor=#000000;fontFamily=Verdana;fontSize=12;" vertex="1" parent="1">
          <mxGeometry x="1067.5" y="485.5" width="30" height="30" as="geometry" />
        </mxCell>
        <mxCell id="3qVbGaDPwB3dUK9NE_3y-20" value="&lt;b style=&quot;border-color: var(--border-color);&quot;&gt;RESET_PRESSED_SHORT&lt;/b&gt;" style="edgeStyle=orthogonalEdgeStyle;rounded=0;orthogonalLoop=1;jettySize=auto;html=1;fontFamily=Verdana;fontSize=12;strokeColor=#000000;entryX=0;entryY=0.5;entryDx=0;entryDy=0;" edge="1" parent="1" source="3qVbGaDPwB3dUK9NE_3y-14" target="3qVbGaDPwB3dUK9NE_3y-19">
          <mxGeometry relative="1" as="geometry">
            <Array as="points">
              <mxPoint x="1030" y="500" />
            </Array>
            <mxPoint x="1030" y="500" as="targetPoint" />
          </mxGeometry>
        </mxCell>
        <mxCell id="3qVbGaDPwB3dUK9NE_3y-21" value="entry/ motorStop()&lt;br&gt;" style="text;html=1;align=left;verticalAlign=middle;resizable=0;points=[];autosize=1;strokeColor=none;fillColor=none;" vertex="1" parent="1">
          <mxGeometry x="270" y="60" width="120" height="30" as="geometry" />
        </mxCell>
        <mxCell id="3qVbGaDPwB3dUK9NE_3y-22" value="&lt;font face=&quot;Verdana&quot;&gt;&lt;b&gt;ERROR_SELFSOLVED&lt;br&gt;[manualSolving=false]&lt;br&gt;&lt;/b&gt;&lt;/font&gt;" style="text;html=1;align=center;verticalAlign=middle;resizable=0;points=[];autosize=1;strokeColor=none;fillColor=none;" vertex="1" parent="1">
          <mxGeometry x="525" y="365" width="180" height="40" as="geometry" />
        </mxCell>
        <mxCell id="3qVbGaDPwB3dUK9NE_3y-23" style="edgeStyle=orthogonalEdgeStyle;rounded=0;orthogonalLoop=1;jettySize=auto;html=1;entryX=0.5;entryY=1;entryDx=0;entryDy=0;fontSize=15;" edge="1" parent="1" source="3qVbGaDPwB3dUK9NE_3y-24" target="3qVbGaDPwB3dUK9NE_3y-25">
          <mxGeometry relative="1" as="geometry" />
        </mxCell>
        <mxCell id="3qVbGaDPwB3dUK9NE_3y-24" value="&lt;b&gt;E-StoppFSM&lt;/b&gt;" style="rounded=1;whiteSpace=wrap;html=1;arcSize=40;fontColor=#000000;fillColor=#ffffc0;strokeColor=#ff0000;shadow=0;glass=0;sketch=0;" vertex="1" parent="1">
          <mxGeometry x="730" y="750" width="125" height="60" as="geometry" />
        </mxCell>
        <mxCell id="3qVbGaDPwB3dUK9NE_3y-25" value="&lt;font style=&quot;font-size: 15px&quot;&gt;&lt;b&gt;H*&lt;/b&gt;&lt;/font&gt;" style="ellipse;whiteSpace=wrap;html=1;aspect=fixed;fillColor=#FFFFC0;strokeColor=#FF0000;" vertex="1" parent="1">
          <mxGeometry x="685" y="585" width="40" height="40" as="geometry" />
        </mxCell>
        <mxCell id="3qVbGaDPwB3dUK9NE_3y-26" style="edgeStyle=orthogonalEdgeStyle;rounded=0;orthogonalLoop=1;jettySize=auto;html=1;entryX=0.5;entryY=1;entryDx=0;entryDy=0;fontSize=15;endArrow=none;endFill=0;" edge="1" parent="1" source="3qVbGaDPwB3dUK9NE_3y-28" target="3qVbGaDPwB3dUK9NE_3y-27">
          <mxGeometry relative="1" as="geometry" />
        </mxCell>
        <mxCell id="3qVbGaDPwB3dUK9NE_3y-27" value="" style="ellipse;whiteSpace=wrap;html=1;aspect=fixed;" vertex="1" parent="1">
          <mxGeometry x="830" y="760" width="15" height="15" as="geometry" />
        </mxCell>
        <mxCell id="3qVbGaDPwB3dUK9NE_3y-28" value="" style="ellipse;whiteSpace=wrap;html=1;aspect=fixed;" vertex="1" parent="1">
          <mxGeometry x="830" y="790" width="15" height="15" as="geometry" />
        </mxCell>
        <mxCell id="3qVbGaDPwB3dUK9NE_3y-29" value="&lt;span style=&quot;color: rgb(0, 0, 0); font-family: verdana; font-size: 12px; font-style: normal; font-weight: 700; letter-spacing: normal; text-align: center; text-indent: 0px; text-transform: none; word-spacing: 0px; background-color: rgb(255, 255, 255); display: inline; float: none;&quot;&gt;ESTOP_X_PRESSED&lt;/span&gt;" style="text;whiteSpace=wrap;html=1;fontSize=12;" vertex="1" parent="1">
          <mxGeometry x="820" y="680" width="120" height="30" as="geometry" />
        </mxCell>
        <mxCell id="3qVbGaDPwB3dUK9NE_3y-30" style="edgeStyle=orthogonalEdgeStyle;html=1;labelBackgroundColor=none;endArrow=open;endSize=8;strokeColor=#000000;fontFamily=Verdana;fontSize=12;align=left;" edge="1" parent="1">
          <mxGeometry relative="1" as="geometry">
            <mxPoint x="250" y="249.66" as="targetPoint" />
            <mxPoint x="140" y="249.66" as="sourcePoint" />
          </mxGeometry>
        </mxCell>
        <mxCell id="3qVbGaDPwB3dUK9NE_3y-31" value="&lt;font face=&quot;Verdana&quot;&gt;&lt;b&gt;ERROR_UNSOLVABLE /manualSolving=true&lt;/b&gt;&lt;/font&gt;" style="text;html=1;align=center;verticalAlign=middle;resizable=0;points=[];autosize=1;strokeColor=none;fillColor=none;" vertex="1" parent="1">
          <mxGeometry x="360" y="100" width="320" height="30" as="geometry" />
        </mxCell>
        <mxCell id="3qVbGaDPwB3dUK9NE_3y-32" value="&lt;font face=&quot;Verdana&quot;&gt;&lt;b&gt;ERROR_SOLVABLE /selfSolving=true&lt;/b&gt;&lt;/font&gt;" style="text;html=1;align=center;verticalAlign=middle;resizable=0;points=[];autosize=1;strokeColor=none;fillColor=none;" vertex="1" parent="1">
          <mxGeometry x="380" y="120" width="270" height="30" as="geometry" />
        </mxCell>
        <mxCell id="3qVbGaDPwB3dUK9NE_3y-33" value="&lt;font face=&quot;Verdana&quot;&gt;&lt;b&gt;ERROR_SOLVABLE /selfSolving=true&lt;/b&gt;&lt;/font&gt;" style="text;html=1;align=center;verticalAlign=middle;resizable=0;points=[];autosize=1;strokeColor=none;fillColor=none;" vertex="1" parent="1">
          <mxGeometry x="110" y="205" width="270" height="30" as="geometry" />
        </mxCell>
        <mxCell id="3qVbGaDPwB3dUK9NE_3y-34" value="&lt;font face=&quot;Verdana&quot;&gt;&lt;b&gt;ERROR_UNSOLVABLE /manualSolving=true&lt;/b&gt;&lt;/font&gt;" style="text;html=1;align=center;verticalAlign=middle;resizable=0;points=[];autosize=1;strokeColor=none;fillColor=none;" vertex="1" parent="1">
          <mxGeometry x="85" y="180" width="320" height="30" as="geometry" />
        </mxCell>
        <mxCell id="3qVbGaDPwB3dUK9NE_3y-35" value="sendEvent(MODE_ERROR)" style="text;html=1;align=center;verticalAlign=middle;resizable=0;points=[];autosize=1;strokeColor=none;fillColor=none;" vertex="1" parent="1">
          <mxGeometry x="120" y="265" width="170" height="30" as="geometry" />
        </mxCell>
        <mxCell id="3qVbGaDPwB3dUK9NE_3y-36" value="&lt;font face=&quot;Verdana&quot;&gt;&lt;b&gt;ERROR_SELFSOLVED /selfSolving=false&lt;/b&gt;&lt;/font&gt;" style="text;html=1;align=center;verticalAlign=middle;resizable=0;points=[];autosize=1;strokeColor=none;fillColor=none;" vertex="1" parent="1">
          <mxGeometry x="240" y="360" width="290" height="30" as="geometry" />
        </mxCell>
      </root>
    </mxGraphModel>
  </diagram>
</mxfile>
